<svg id="Grupo_179" data-name="Grupo 179" xmlns="http://www.w3.org/2000/svg" width="29.195" height="23" viewBox="0 0 29.195 23">
  <g id="Grupo_178" data-name="Grupo 178">
    <g id="Grupo_177" data-name="Grupo 177">
      <path id="Caminho_357" data-name="Caminho 357" d="M220.378,436.106c.7-.43,1.8-1.133,2.327-1.469-.015-.019-.028-.038-.043-.054-.245-.3-.845-.086-1.254.144-.254.148-1.412.872-2.26,1.379.355.037.728.064,1.089.088Zm4.882.272.2-.138c1.549-1.053,3.375-2.409,3.932-2.81-.068-.091-.145-.179-.22-.262-.43-.468-1.388-.056-2.035.362-.442.3-2.69,1.885-4.057,2.763C223.853,436.324,224.588,436.342,225.26,436.378Zm-2.767-.1.209-.135c1.031-.66,2.627-1.753,3.386-2.281-.022-.027-.044-.052-.066-.078-.376-.431-1.251-.09-1.845.27-.366.229-2.053,1.353-3.306,2.124C221.4,436.223,221.954,436.254,222.493,436.277Zm9.154-2.933c-.6-.419-1.441-.023-2.1.426-.414.291-2.352,1.729-3.757,2.686.086.005.175.009.259.015a4.685,4.685,0,0,1,2.628.812c1.178-.83,2.738-2,3.174-2.315C232.562,434.469,232.179,433.719,231.647,433.344Zm-6.292,3.516c-2.768-.176-7.129.025-8.546-1.132a10.362,10.362,0,0,0-6.413-2.5c-2.6-.178-6.439.556-7.352.589V439.1a36.32,36.32,0,0,1,3.848.5c2.273.339,6.085,3.178,8.271,3.391,2.692.262,8.854-2.658,8.812-2.68,0,.012-3.516-.12-5.321-.31-.164-.02-.391-.094-.381-.271s.295-.221.293-.222c-.007.054,6.333.359,7.576.363,1.171-.014,2.811.041,2.819-.915C228.97,437.973,228.127,437.053,225.355,436.86Z" transform="translate(-203.044 -420.011)"/>
      <path id="Caminho_358" data-name="Caminho 358" d="M261.022,349.094a3.868,3.868,0,0,0-1.614.35q-.134.061-.262.132-.064.035-.127.073-.125.076-.244.16t-.231.178a3.9,3.9,0,0,0-.419.4q-.1.109-.186.224a3.877,3.877,0,0,0-.564,1.025,3.88,3.88,0,0,0-.564-1.025q-.089-.116-.186-.224a3.894,3.894,0,0,0-.419-.4q-.056-.047-.114-.091a3.9,3.9,0,0,0-.362-.247q-.063-.038-.127-.073-.128-.071-.262-.132a3.884,3.884,0,0,0-5.5,3.532c0,5.183,6.981,8.01,7.5,9.013l.031.1h0l.031-.1c.517-1,7.5-3.829,7.5-9.013A3.882,3.882,0,0,0,261.022,349.094Z" transform="translate(-242.62 -349.094)"/>
    </g>
  </g>
</svg>
