<?xml version="1.0" encoding="UTF-8"?>
<svg width="123px" height="32px" viewBox="0 0 240 43" version="1.1" xmlns="http://www.w3.org/2000/svg" xmlns:xlink="http://www.w3.org/1999/xlink">
    <title>Logo</title>
    <defs>
        <linearGradient x1="31.7331691%" y1="78.7237326%" x2="80.9577584%" y2="27.0992268%" id="linearGradient-1">
            <stop stop-color="#54CA2F" offset="0%"></stop>
            <stop stop-color="#319A11" offset="100%"></stop>
        </linearGradient>
        <linearGradient x1="59.8243487%" y1="25.3452995%" x2="22.7927769%" y2="76.5897091%" id="linearGradient-2">
            <stop stop-color="#007CC3" offset="0%"></stop>
            <stop stop-color="#004690" offset="100%"></stop>
        </linearGradient>
        <linearGradient x1="51.1512145%" y1="87.6566319%" x2="47.5903405%" y2="4.16313403%" id="linearGradient-3">
            <stop stop-color="#0058B5" offset="0%"></stop>
            <stop stop-color="#0090DB" offset="100%"></stop>
        </linearGradient>
        <linearGradient x1="49.5802189%" y1="13.7921736%" x2="50.9045354%" y2="94.8136201%" id="linearGradient-4">
            <stop stop-color="#54CA30" offset="0%"></stop>
            <stop stop-color="#8CE65D" offset="100%"></stop>
        </linearGradient>
    </defs>
    <g id="Logo" stroke="none" stroke-width="1" fill="none" fill-rule="evenodd">
        <g id="Logo-Copy" transform="translate(-0.000000, 0.000000)">
            <path d="M23.7163032,31.1624004 C21.0332388,33.8454648 21.0332388,38.1949215 23.7175983,40.8788493 C26.400231,43.5619137 30.7505511,43.5623454 33.4336155,40.8797127 L39.9067754,34.3708208 L39.8463363,32.3133011 C39.7150971,27.7428099 37.0270688,24.3583971 33.892438,21.0446076 L23.7163032,31.1624004 Z" id="Fill-1" fill="url(#linearGradient-1)"></path>
            <path d="M8.38991093,7.61113329 L8.38991093,9.68851153 C8.52115012,14.2572758 10.2389337,18.7649596 13.3735645,22.0787492 L23.7175983,11.7295026 C26.400231,9.04686998 26.3993675,4.69611814 23.7158715,2.01219035 C22.3741234,0.67087402 20.616209,4.8316906e-14 18.8578629,4.8316906e-14 C17.0999485,4.8316906e-14 15.3416023,0.67087402 14.000286,2.01219035 L8.38991093,7.61113329 Z" id="Fill-4" fill="url(#linearGradient-2)"></path>
            <path d="M3.84133657,12.1715715 C1.29253334,14.719943 0.0120878202,18.0566131 -1.98951966e-14,21.3971685 L-1.98951966e-14,21.3971685 L-1.98951966e-14,21.4930077 C0.0120878202,24.8335631 1.29253334,28.1706649 3.84133657,30.7194681 L3.84133657,30.7194681 L14.000286,40.8779859 C16.6829187,43.5610502 21.0341022,43.5623454 23.7175983,40.8797127 L23.7175983,40.8797127 C26.400231,38.1966483 26.3989358,33.8454648 23.7154398,31.1624004 L23.7154398,31.1624004 L14.366806,21.8137666 C11.0102773,18.4576697 9.06629684,13.944164 8.92987715,9.20098969 L8.92987715,9.20098969 L8.87116488,7.14131147 L3.84133657,12.1715715 Z" id="Fill-7" fill="url(#linearGradient-3)"></path>
            <path d="M23.7163032,2.01175864 C21.0332388,4.69525472 21.0341022,9.04730169 23.7175983,11.7299344 L23.7175983,11.7299344 L33.0662321,21.0785681 C36.4227607,24.4350968 38.3684681,28.9464439 38.5040243,33.6904817 L38.5040243,33.6904817 L38.5636,35.7492965 L43.2277718,31.084693 C48.5507297,25.7621667 48.5507297,17.1305997 43.2277718,11.8076418 L43.2277718,11.8076418 L33.4336155,2.01391718 C32.0918674,0.671737435 30.3326579,0.000431707863 28.5734483,0.000431707863 L28.5734483,0.000431707863 C26.8155339,0.000863415727 25.0576195,0.67087402 23.7163032,2.01175864" id="Fill-10" fill="url(#linearGradient-4)"></path>
            <path d="M172.518449,17.117778 L170.059009,17.117778 C168.751798,17.117778 167.691955,18.1776208 167.691955,19.4835371 L167.691955,32.9601615 L161.987367,32.9601615 L161.987367,19.1977465 C161.987367,15.1997 165.228198,11.9580056 169.226245,11.9580056 L175.496801,11.9580056 L172.518449,17.117778 Z M213.90585,20.1064915 C218.640822,20.8300339 220.941393,22.870717 220.941393,26.3451019 C220.941393,28.4993241 220.087043,30.2360848 218.403382,31.5066011 C216.720153,32.7766856 214.353099,33.4207937 211.367839,33.4207937 C207.613708,33.4207937 204.367265,32.5888927 202.088279,31.0446737 L204.511023,26.8471781 L204.53304,26.8605611 C206.524509,28.1202846 208.838895,28.7587805 211.41101,28.7587805 C213.970174,28.7587805 215.267888,28.0982675 215.267888,26.7958049 C215.267888,26.294592 214.992459,25.8879232 214.448507,25.5874546 C213.895921,25.2826688 213.030346,25.0499783 211.798252,24.876 L210.098618,24.6394241 C205.250107,23.974594 202.892551,21.9054182 202.892551,18.3157673 C202.892551,16.1900378 203.677827,14.5024918 205.224636,13.303639 C206.774468,12.1056497 208.949844,11.4982367 211.690325,11.4982367 C214.704941,11.4982367 217.86677,12.2312767 220.49069,13.475027 L218.08176,17.648347 C217.410454,17.3806881 216.101516,16.8721362 215.307605,16.6541238 C214.108753,16.3264575 212.948754,16.1533426 211.86344,16.1386646 C210.821297,16.1386646 210.014867,16.3087575 209.47221,16.6441945 C208.927827,16.9813583 208.651965,17.4501931 208.651965,18.0364523 C208.651965,18.5734969 208.943368,18.9805974 209.494659,19.213288 C210.052426,19.4490005 210.914546,19.6557885 212.055982,19.8263131 L213.90585,20.1064915 L213.90585,20.1064915 Z M224.471468,32.9597298 L230.176919,32.9597298 L230.176919,11.9580056 L224.471468,11.9580056 L224.471468,32.9597298 Z M227.32333,9.16140208 C225.599521,9.16140208 224.198197,7.75921494 224.198197,6.03626886 C224.198197,4.31245936 225.599521,2.9089771 227.32333,2.9089771 C229.04714,2.9089771 230.449327,4.31159594 230.449327,6.03540544 C230.449327,7.75921494 229.04714,9.16140208 227.32333,9.16140208 L227.32333,9.16140208 Z M150.16073,27.7796671 L143.401049,27.7796671 L143.401049,20.1436184 L149.39488,20.1436184 L149.396607,20.1436184 L150.16073,20.1436184 C152.108164,20.1436184 153.691669,21.8566352 153.691669,23.9629379 C153.691669,26.067082 152.108164,27.7796671 150.16073,27.7796671 L150.16073,27.7796671 Z M143.401049,8.94425302 L149.395744,8.94425302 C150.896792,8.94425302 152.118094,10.2950669 152.118094,11.9549837 C152.118094,13.6136053 150.896792,14.9626923 149.395744,14.9626923 L143.401049,14.9626923 L143.401049,8.94425302 Z M154.377653,17.5054517 C156.705853,16.1874476 157.585242,13.8657227 157.585242,11.9532568 C157.585242,7.43025355 153.918747,3.76332696 149.39488,3.76332696 L137.694302,3.76332696 L137.694302,32.9605932 L150.16073,32.9605932 C155.130551,32.9605932 159.159249,28.931032 159.159249,23.9620745 C159.159249,21.1382733 157.31413,18.3619601 154.377653,17.5054517 L154.377653,17.5054517 Z M240,32.9601615 L234.294549,32.9601615 L234.294549,2.90984051 C237.445585,2.90984051 240,5.46425594 240,8.61615505 L240,32.9601615 Z M187.128738,28.8934734 C183.725153,28.8934734 180.956179,26.0688088 180.956179,22.5961508 C180.956179,19.1239244 183.725153,16.2992599 187.128738,16.2992599 C190.533186,16.2992599 193.301729,19.1239244 193.301729,22.5961508 C193.301729,26.0688088 190.533186,28.8934734 187.128738,28.8934734 L187.128738,28.8934734 Z M193.575,11.9584373 L193.575,14.1234523 C191.591302,12.4281355 189.075309,11.497805 186.459159,11.497805 C180.414817,11.497805 175.496801,16.4153893 175.496801,22.4597311 C175.496801,28.5040729 180.414817,33.4212255 186.459159,33.4212255 C189.075309,33.4212255 191.591302,32.4904633 193.575,30.7951465 L193.575,32.9601615 L198.735636,32.9601615 L198.735636,11.9584373 L193.575,11.9584373 Z" id="Fill-13" fill="#54CA30"></path>
            <path d="M121.579036,28.8932144 C118.174588,28.8932144 115.405614,26.0685498 115.405614,22.5958918 C115.405614,19.1236654 118.174588,16.2990009 121.579036,16.2990009 C124.982621,16.2990009 127.751595,19.1236654 127.751595,22.5958918 C127.751595,26.0685498 124.982621,28.8932144 121.579036,28.8932144 L121.579036,28.8932144 Z M128.024866,11.9577466 L128.024866,14.1236249 C126.040737,12.4278765 123.524312,11.4984094 120.909457,11.4984094 C114.864252,11.4984094 109.947531,16.4151303 109.947531,22.4594721 C109.947531,28.5038139 114.864252,33.4205347 120.909457,33.4205347 C123.524312,33.4205347 126.040737,32.4902043 128.024866,30.7944558 L128.024866,32.8390242 C128.024866,36.9838514 123.61238,37.6020571 120.981984,37.6020571 C118.649898,37.6020571 116.147288,36.7921731 114.024149,35.5328813 L111.407136,40.0658139 C115.511814,42.4509998 119.562961,42.8080222 121.369226,42.8080222 C123.333929,42.8080222 133.095275,42.3292582 133.181185,32.9599024 L133.18507,32.9599024 L133.18507,11.9577466 L128.024866,11.9577466 Z M95.0808076,28.8932144 C91.6763594,28.8932144 88.9073852,26.0689815 88.9073852,22.5963235 C88.9073852,19.1240971 91.6763594,16.2990009 95.0808076,16.2990009 C98.4843924,16.2990009 101.253367,19.1240971 101.253367,22.5963235 C101.253367,26.0689815 98.4843924,28.8932144 95.0808076,28.8932144 L95.0808076,28.8932144 Z M101.526206,11.9581783 L101.526206,14.1236249 C99.5425084,12.4283082 97.0260832,11.4979777 94.4103653,11.4979777 C88.3660235,11.4979777 83.4493027,16.415562 83.4493027,22.4599038 C83.4493027,28.5042456 88.3660235,33.4209664 94.4103653,33.4209664 C97.0260832,33.4209664 99.5425084,32.490636 101.526206,30.7948875 L101.526206,32.9603341 L106.686842,32.9603341 L106.686842,11.9581783 L101.526206,11.9581783 Z M72.7455379,17.4153974 L66.571252,17.4153974 L66.571252,8.943994 L72.7455379,8.943994 C74.9226406,8.943994 76.6943697,10.844372 76.6943697,13.1803433 C76.6943697,15.5167462 74.9226406,17.4153974 72.7455379,17.4153974 L72.7455379,17.4153974 Z M72.7446745,3.76306793 L60.9482571,3.76306793 L60.9482571,32.9611976 L66.571252,32.9611976 L66.571252,22.5963235 L72.7446745,22.5963235 C77.9454591,22.5963235 82.1606547,18.3798328 82.1606547,13.1790481 C82.1606547,7.97955863 77.9454591,3.76306793 72.7446745,3.76306793 L72.7446745,3.76306793 Z" id="Fill-15" fill="#0058B5"></path>
        </g>
    </g>
</svg>